<svg id="visual" viewBox="0 0 960 100" width="960" height="100" xmlns="http://www.w3.org/2000/svg" xmlns:xlink="http://www.w3.org/1999/xlink" version="1.1"><rect x="0" y="0" width="960" height="100" fill="#ffffff"></rect><path d="M0 55L137 51L274 57L411 45L549 61L686 48L823 47L960 59L960 0L823 0L686 0L549 0L411 0L274 0L137 0L0 0Z" fill="#3cc157"></path><path d="M0 35L137 46L274 40L411 42L549 48L686 35L823 53L960 45L960 0L823 0L686 0L549 0L411 0L274 0L137 0L0 0Z" fill="#3a9348"></path><path d="M0 37L137 25L274 27L411 39L549 35L686 25L823 42L960 41L960 0L823 0L686 0L549 0L411 0L274 0L137 0L0 0Z" fill="#336839"></path><path d="M0 22L137 19L274 18L411 18L549 16L686 19L823 20L960 17L960 0L823 0L686 0L549 0L411 0L274 0L137 0L0 0Z" fill="#29402a"></path><path d="M0 17L137 18L274 18L411 9L549 14L686 19L823 13L960 14L960 0L823 0L686 0L549 0L411 0L274 0L137 0L0 0Z" fill="#1b1b1b"></path></svg>